<svg width="188" height="40" viewBox="0 0 188 40" fill="none" xmlns="http://www.w3.org/2000/svg">
  <path d="M20 4L37 34H3L20 4Z" fill="black"/>
  <path d="M14.5 24H25.5" stroke="white" stroke-width="2.5" stroke-linecap="round"/>
  <circle cx="14.5" cy="24" r="2" fill="white"/>
  <circle cx="25.5" cy="24" r="2" fill="white"/>
  <path d="M55.56 26.24C50.94 26.24 47.82 23.16 47.82 18.74C47.82 14.32 50.94 11.24 55.56 11.24C60.16 11.24 63.28 14.32 63.28 18.74C63.28 23.16 60.16 26.24 55.56 26.24ZM55.56 23.36C58.22 23.36 60.02 21.5 60.02 18.74C60.02 15.98 58.22 14.12 55.56 14.12C52.88 14.12 51.08 15.98 51.08 18.74C51.08 21.5 52.88 23.36 55.56 23.36Z" fill="black"/>
  <path d="M66.54 26V11.48H69.56L76.82 20.9V11.48H80V26H77.02L69.72 16.56V26H66.54Z" fill="black"/>
  <path d="M90.51 26.24C86.05 26.24 82.89 23.12 82.89 18.74C82.89 14.36 86.05 11.24 90.51 11.24C93.79 11.24 96.35 12.96 97.45 15.74L94.55 16.92C93.85 15.16 92.39 14.12 90.51 14.12C87.95 14.12 86.15 16.02 86.15 18.74C86.15 21.46 87.95 23.36 90.51 23.36C92.43 23.36 93.91 22.3 94.59 20.48L97.51 21.58C96.43 24.48 93.83 26.24 90.51 26.24Z" fill="black"/>
  <path d="M100.56 26V11.48H103.76V17.38H110.68V11.48H113.88V26H110.68V20.18H103.76V26H100.56Z" fill="black"/>
  <path d="M116.63 26L122.29 11.48H125.99L131.65 26H128.25L127.11 22.94H121.05L119.91 26H116.63ZM122.03 20.28H126.13L124.09 14.78L122.03 20.28Z" fill="black"/>
  <path d="M134.37 26V11.48H137.57V26H134.37Z" fill="black"/>
  <path d="M141.51 26V11.48H144.53L151.79 20.9V11.48H154.97V26H151.99L144.69 16.56V26H141.51Z" fill="black"/>
  <path d="M159.18 22.06V19.38H169.02V22.06H159.18Z" fill="black"/>
  <path d="M178.95 26.24C175.27 26.24 172.91 24.04 172.91 20.4V11.48H176.11V20.26C176.11 22.22 177.21 23.36 178.95 23.36C180.69 23.36 181.79 22.22 181.79 20.26V11.48H184.99V20.4C184.99 24.04 182.63 26.24 178.95 26.24Z" fill="black"/>
</svg>
